<svg width="21" height="22" viewBox="0 0 21 22" fill="none" xmlns="http://www.w3.org/2000/svg">
<path d="M0 8.375V16.25C0.00138938 17.4099 0.462772 18.5219 1.28294 19.3421C2.10311 20.1622 3.2151 20.6236 4.375 20.625H16.625C17.7849 20.6236 18.8969 20.1622 19.7171 19.3421C20.5372 18.5219 20.9986 17.4099 21 16.25V8.375H0ZM12.25 17.125H5.25C5.01794 17.125 4.79538 17.0328 4.63128 16.8687C4.46719 16.7046 4.375 16.4821 4.375 16.25C4.375 16.0179 4.46719 15.7954 4.63128 15.6313C4.79538 15.4672 5.01794 15.375 5.25 15.375H12.25C12.4821 15.375 12.7046 15.4672 12.8687 15.6313C13.0328 15.7954 13.125 16.0179 13.125 16.25C13.125 16.4821 13.0328 16.7046 12.8687 16.8687C12.7046 17.0328 12.4821 17.125 12.25 17.125ZM15.75 13.625H5.25C5.01794 13.625 4.79538 13.5328 4.63128 13.3687C4.46719 13.2046 4.375 12.9821 4.375 12.75C4.375 12.5179 4.46719 12.2954 4.63128 12.1313C4.79538 11.9672 5.01794 11.875 5.25 11.875H15.75C15.9821 11.875 16.2046 11.9672 16.3687 12.1313C16.5328 12.2954 16.625 12.5179 16.625 12.75C16.625 12.9821 16.5328 13.2046 16.3687 13.3687C16.2046 13.5328 15.9821 13.625 15.75 13.625ZM21 6.625V5.75C20.9986 4.5901 20.5372 3.47811 19.7171 2.65794C18.8969 1.83777 17.7849 1.37639 16.625 1.375H4.375C3.2151 1.37639 2.10311 1.83777 1.28294 2.65794C0.462772 3.47811 0.00138938 4.5901 0 5.75L0 6.625H21ZM8.75 3.125C8.92306 3.125 9.09223 3.17632 9.23612 3.27246C9.38002 3.36861 9.49217 3.50527 9.55839 3.66515C9.62462 3.82504 9.64195 4.00097 9.60819 4.1707C9.57442 4.34044 9.49109 4.49635 9.36872 4.61872C9.24635 4.74109 9.09044 4.82443 8.9207 4.85819C8.75097 4.89195 8.57504 4.87462 8.41515 4.80839C8.25527 4.74217 8.11861 4.63002 8.02246 4.48612C7.92632 4.34223 7.875 4.17306 7.875 4C7.875 3.76794 7.96719 3.54538 8.13128 3.38128C8.29538 3.21719 8.51794 3.125 8.75 3.125ZM6.125 3.125C6.29806 3.125 6.46723 3.17632 6.61112 3.27246C6.75502 3.36861 6.86717 3.50527 6.93339 3.66515C6.99962 3.82504 7.01695 4.00097 6.98319 4.1707C6.94943 4.34044 6.86609 4.49635 6.74372 4.61872C6.62135 4.74109 6.46544 4.82443 6.2957 4.85819C6.12597 4.89195 5.95004 4.87462 5.79015 4.80839C5.63027 4.74217 5.49361 4.63002 5.39746 4.48612C5.30132 4.34223 5.25 4.17306 5.25 4C5.25 3.76794 5.34219 3.54538 5.50628 3.38128C5.67038 3.21719 5.89294 3.125 6.125 3.125ZM3.5 3.125C3.67306 3.125 3.84223 3.17632 3.98612 3.27246C4.13002 3.36861 4.24217 3.50527 4.30839 3.66515C4.37462 3.82504 4.39195 4.00097 4.35819 4.1707C4.32443 4.34044 4.24109 4.49635 4.11872 4.61872C3.99635 4.74109 3.84044 4.82443 3.6707 4.85819C3.50097 4.89195 3.32504 4.87462 3.16515 4.80839C3.00527 4.74217 2.86861 4.63002 2.77246 4.48612C2.67632 4.34223 2.625 4.17306 2.625 4C2.625 3.76794 2.71719 3.54538 2.88128 3.38128C3.04538 3.21719 3.26794 3.125 3.5 3.125Z" fill="#56657F"/>
</svg>
