<svg width="20" height="22" viewBox="0 0 20 22" fill="none" xmlns="http://www.w3.org/2000/svg">
<path d="M0.704838 16.25C0.877059 16.5489 1.10651 16.8109 1.38006 17.0211C1.65361 17.2313 1.96591 17.3854 2.29909 17.4748C2.63227 17.5642 2.97981 17.5871 3.32182 17.542C3.66384 17.497 3.99363 17.3851 4.29234 17.2125L4.68171 16.9876C5.41672 17.6165 6.26156 18.1042 7.17371 18.4261V18.875C7.17371 19.5712 7.45027 20.2389 7.94256 20.7312C8.43484 21.2234 9.10252 21.5 9.79871 21.5C10.4949 21.5 11.1626 21.2234 11.6549 20.7312C12.1472 20.2389 12.4237 19.5712 12.4237 18.875V18.4261C13.336 18.1036 14.1808 17.6153 14.9157 16.9859L15.3068 17.2116C15.9102 17.5597 16.6271 17.6539 17.2999 17.4734C17.9727 17.2929 18.5462 16.8525 18.8943 16.2491C19.2424 15.6458 19.3366 14.9288 19.1561 14.256C18.9756 13.5832 18.5352 13.0097 17.9318 12.6616L17.5433 12.4376C17.7182 11.486 17.7182 10.5105 17.5433 9.55888L17.9318 9.33488C18.2306 9.16251 18.4925 8.933 18.7025 8.65943C18.9126 8.38586 19.0667 8.0736 19.1561 7.74047C19.2455 7.40734 19.2683 7.05986 19.2234 6.71789C19.1785 6.37591 19.0667 6.04613 18.8943 5.74737C18.722 5.44862 18.4925 5.18673 18.2189 4.97668C17.9453 4.76662 17.6331 4.61251 17.2999 4.52313C16.9668 4.43375 16.6193 4.41087 16.2773 4.45578C15.9354 4.50069 15.6056 4.61251 15.3068 4.78487L14.9175 5.00975C14.1817 4.38165 13.3363 3.89486 12.4237 3.57387V3.125C12.4237 2.42881 12.1472 1.76113 11.6549 1.26884C11.1626 0.776562 10.4949 0.5 9.79871 0.5C9.10252 0.5 8.43484 0.776562 7.94256 1.26884C7.45027 1.76113 7.17371 2.42881 7.17371 3.125V3.57387C6.26143 3.89637 5.41658 4.38465 4.68171 5.01412L4.29059 4.7875C3.68722 4.4394 2.97028 4.34525 2.2975 4.52575C1.62471 4.70626 1.05118 5.14663 0.703088 5.75C0.354991 6.35337 0.260839 7.0703 0.441343 7.74309C0.621846 8.41588 1.06222 8.9894 1.66559 9.3375L2.05409 9.5615C1.87918 10.5131 1.87918 11.4886 2.05409 12.4403L1.66559 12.6643C1.06376 13.0133 0.624761 13.5867 0.444696 14.2587C0.264632 14.9308 0.358172 15.6468 0.704838 16.25ZM9.79871 7.5C10.4909 7.5 11.1676 7.70527 11.7432 8.08986C12.3188 8.47444 12.7674 9.02107 13.0323 9.66061C13.2972 10.3001 13.3665 11.0039 13.2315 11.6828C13.0964 12.3617 12.7631 12.9854 12.2736 13.4749C11.7841 13.9644 11.1605 14.2977 10.4815 14.4327C9.80259 14.5678 9.09886 14.4985 8.45932 14.2336C7.81978 13.9687 7.27315 13.5201 6.88857 12.9445C6.50398 12.3689 6.29871 11.6922 6.29871 11C6.29871 10.0717 6.66746 9.1815 7.32384 8.52513C7.98022 7.86875 8.87045 7.5 9.79871 7.5Z" fill="#56657F"/>
</svg>
