<svg width="22" height="22" viewBox="0 0 22 22" fill="none" xmlns="http://www.w3.org/2000/svg">
<g clip-path="url(#clip0)">
<path d="M1.70484 16.25C1.87706 16.5489 2.10651 16.8109 2.38006 17.0211C2.65361 17.2313 2.96591 17.3854 3.29909 17.4748C3.63227 17.5642 3.97981 17.5871 4.32182 17.542C4.66384 17.497 4.99363 17.3851 5.29234 17.2125L5.68171 16.9876C6.41672 17.6165 7.26156 18.1042 8.17371 18.4261V18.875C8.17371 19.5712 8.45027 20.2389 8.94256 20.7312C9.43484 21.2234 10.1025 21.5 10.7987 21.5C11.4949 21.5 12.1626 21.2234 12.6549 20.7312C13.1472 20.2389 13.4237 19.5712 13.4237 18.875V18.4261C14.336 18.1036 15.1808 17.6153 15.9157 16.9859L16.3068 17.2116C16.9102 17.5597 17.6271 17.6539 18.2999 17.4734C18.9727 17.2929 19.5462 16.8525 19.8943 16.2491C20.2424 15.6458 20.3366 14.9288 20.1561 14.256C19.9756 13.5832 19.5352 13.0097 18.9318 12.6616L18.5433 12.4376C18.7182 11.486 18.7182 10.5105 18.5433 9.55888L18.9318 9.33488C19.2306 9.16251 19.4925 8.933 19.7025 8.65943C19.9126 8.38586 20.0667 8.0736 20.1561 7.74047C20.2455 7.40734 20.2683 7.05986 20.2234 6.71789C20.1785 6.37591 20.0667 6.04613 19.8943 5.74737C19.722 5.44862 19.4925 5.18673 19.2189 4.97668C18.9453 4.76662 18.6331 4.61251 18.2999 4.52313C17.9668 4.43375 17.6193 4.41087 17.2773 4.45578C16.9354 4.50069 16.6056 4.61251 16.3068 4.78487L15.9175 5.00975C15.1817 4.38165 14.3363 3.89486 13.4237 3.57387V3.125C13.4237 2.42881 13.1472 1.76113 12.6549 1.26884C12.1626 0.776562 11.4949 0.5 10.7987 0.5C10.1025 0.5 9.43484 0.776562 8.94256 1.26884C8.45027 1.76113 8.17371 2.42881 8.17371 3.125V3.57387C7.26143 3.89637 6.41658 4.38465 5.68171 5.01412L5.29059 4.7875C4.68722 4.4394 3.97028 4.34525 3.2975 4.52575C2.62471 4.70626 2.05118 5.14663 1.70309 5.75C1.35499 6.35337 1.26084 7.0703 1.44134 7.74309C1.62185 8.41588 2.06222 8.9894 2.66559 9.3375L3.05409 9.5615C2.87918 10.5131 2.87918 11.4886 3.05409 12.4403L2.66559 12.6643C2.06376 13.0133 1.62476 13.5867 1.4447 14.2587C1.26463 14.9308 1.35817 15.6468 1.70484 16.25ZM10.7987 7.5C11.4909 7.5 12.1676 7.70527 12.7432 8.08986C13.3188 8.47444 13.7674 9.02107 14.0323 9.66061C14.2972 10.3001 14.3665 11.0039 14.2315 11.6828C14.0964 12.3617 13.7631 12.9854 13.2736 13.4749C12.7841 13.9644 12.1605 14.2977 11.4815 14.4327C10.8026 14.5678 10.0989 14.4985 9.45932 14.2336C8.81978 13.9687 8.27315 13.5201 7.88857 12.9445C7.50398 12.3689 7.29871 11.6922 7.29871 11C7.29871 10.0717 7.66746 9.1815 8.32384 8.52513C8.98022 7.86875 9.87045 7.5 10.7987 7.5Z" fill="#1976D2"/>
</g>
<defs>
<clipPath id="clip0">
<rect width="21" height="21" fill="white" transform="translate(0.298706 0.5)"/>
</clipPath>
</defs>
</svg>
