<svg width="101" height="101" viewBox="0 0 101 101" fill="none" xmlns="http://www.w3.org/2000/svg">
<path d="M96.3333 46.0225H54.6667V4.35588C54.6667 3.25081 54.2277 2.191 53.4463 1.4096C52.6649 0.628196 51.6051 0.189209 50.5 0.189209C49.3949 0.189209 48.3351 0.628196 47.5537 1.4096C46.7723 2.191 46.3333 3.25081 46.3333 4.35588V46.0225H4.66667C3.5616 46.0225 2.50179 46.4615 1.72039 47.2429C0.938987 48.0243 0.5 49.0841 0.5 50.1892C0.5 51.2943 0.938987 52.3541 1.72039 53.1355C2.50179 53.9169 3.5616 54.3559 4.66667 54.3559H46.3333V96.0225C46.3333 97.1276 46.7723 98.1874 47.5537 98.9688C48.3351 99.7502 49.3949 100.189 50.5 100.189C51.6051 100.189 52.6649 99.7502 53.4463 98.9688C54.2277 98.1874 54.6667 97.1276 54.6667 96.0225V54.3559H96.3333C97.4384 54.3559 98.4982 53.9169 99.2796 53.1355C100.061 52.3541 100.5 51.2943 100.5 50.1892C100.5 49.0841 100.061 48.0243 99.2796 47.2429C98.4982 46.4615 97.4384 46.0225 96.3333 46.0225Z" fill="#4F5E76"/>
</svg>
