<svg width="22" height="22" viewBox="0 0 22 22" fill="none" xmlns="http://www.w3.org/2000/svg">
<g clip-path="url(#clip0)">
<path d="M20.7308 1.06785C20.4726 0.806825 20.1448 0.62556 19.7864 0.545663C19.428 0.465766 19.0542 0.490607 18.7096 0.617226L18.5206 0.684601C14.2883 2.0612 10.4352 4.40553 7.26721 7.53148C6.47217 8.34752 5.74879 9.23044 5.10508 10.1705C3.88008 11.9205 3.64733 13.8358 5.15233 15.3417L5.18646 15.375L3.18008 17.3813C3.01604 17.5454 2.92389 17.768 2.92389 18C2.92389 18.232 3.01604 18.4545 3.18008 18.6186C3.34417 18.7826 3.56669 18.8748 3.79871 18.8748C4.03072 18.8748 4.25324 18.7826 4.41733 18.6186L6.42371 16.6122L6.45696 16.6463C7.96283 18.1513 9.88258 17.9168 11.6282 16.6936C12.5682 16.0499 13.4512 15.3265 14.2672 14.5315C17.3933 11.3633 19.7376 7.50985 21.1141 3.27723L21.1815 3.08823C21.3081 2.74372 21.333 2.37006 21.2531 2.01181C21.1732 1.65357 20.9919 1.32588 20.7308 1.06785ZM9.92371 12.75C9.75065 12.75 9.58147 12.6987 9.43758 12.6025C9.29369 12.5064 9.18154 12.3697 9.11531 12.2098C9.04908 12.0499 9.03176 11.874 9.06552 11.7043C9.09928 11.5345 9.18262 11.3786 9.30499 11.2563C9.42736 11.1339 9.58327 11.0505 9.753 11.0168C9.92274 10.983 10.0987 11.0004 10.2586 11.0666C10.4184 11.1328 10.5551 11.245 10.6512 11.3889C10.7474 11.5327 10.7987 11.7019 10.7987 11.875C10.7987 12.107 10.7065 12.3296 10.5424 12.4937C10.3783 12.6578 10.1558 12.75 9.92371 12.75ZM12.5487 10.125C12.3756 10.125 12.2065 10.0737 12.0626 9.97751C11.9187 9.88136 11.8065 9.74471 11.7403 9.58482C11.6741 9.42494 11.6568 9.249 11.6905 9.07927C11.7243 8.90954 11.8076 8.75363 11.93 8.63126C12.0524 8.50889 12.2083 8.42555 12.378 8.39179C12.5477 8.35803 12.7237 8.37535 12.8836 8.44158C13.0434 8.50781 13.1801 8.61996 13.2762 8.76385C13.3724 8.90774 13.4237 9.07692 13.4237 9.24998C13.4237 9.48204 13.3315 9.7046 13.1674 9.86869C13.0033 10.0328 12.7808 10.125 12.5487 10.125ZM15.1737 7.49998C15.0006 7.49998 14.8315 7.44866 14.6876 7.35251C14.5437 7.25636 14.4315 7.11971 14.3653 6.95982C14.2991 6.79994 14.2818 6.624 14.3155 6.45427C14.3493 6.28454 14.4326 6.12863 14.555 6.00626C14.6774 5.88389 14.8333 5.80055 15.003 5.76679C15.1727 5.73303 15.3487 5.75035 15.5086 5.81658C15.6684 5.88281 15.8051 5.99496 15.9012 6.13885C15.9974 6.28274 16.0487 6.45192 16.0487 6.62498C16.0487 6.85704 15.9565 7.0796 15.7924 7.24369C15.6283 7.40779 15.4058 7.49998 15.1737 7.49998ZM2.36633 11.9082C2.09485 11.9083 1.826 11.855 1.57515 11.7512C1.3243 11.6473 1.09636 11.4951 0.904352 11.3032C0.712344 11.1113 0.56003 10.8834 0.456112 10.6326C0.352193 10.3818 0.298706 10.113 0.298706 9.84147C0.300821 9.30247 0.509 8.78468 0.880581 8.39423C2.37539 6.8576 4.39269 5.93826 6.53308 5.81823C6.36596 5.97748 6.19533 6.12885 6.02996 6.29423C5.16341 7.18118 4.37448 8.14077 3.67183 9.16247C3.08094 9.98113 2.66947 10.9153 2.46433 11.9038L2.36633 11.9082ZM9.92371 19.3343C10.9124 19.1296 11.8466 18.7181 12.6651 18.1268C13.6885 17.4246 14.6495 16.6357 15.5377 15.7687C15.704 15.6033 15.8545 15.4327 16.0146 15.2656C15.8938 17.406 14.9742 19.4231 13.4377 20.9181C13.0476 21.2897 12.5301 21.4979 11.9913 21.5C11.443 21.5 10.9171 21.2821 10.5293 20.8944C10.1415 20.5066 9.92371 19.9807 9.92371 19.4323V19.3343Z" fill="#1976D2"/>
</g>
<defs>
<clipPath id="clip0">
<rect width="21" height="21" fill="white" transform="translate(0.298706 0.5)"/>
</clipPath>
</defs>
</svg>
